<svg version="1.2" xmlns="http://www.w3.org/2000/svg" viewBox="0 0 459 332" width="459" height="332">
	<style>
		.s0 { fill: #fefefe } 
	</style>
	<path fill-rule="evenodd" class="s0" d="m51.08 148.13l17.8-0.1c3.69-0.01 7.6-0.15 11.29 0.21 31.29 3.03 51.85 33.01 44.52 63.35-1.74 7.2-4.47 11.71-8.43 17.74 12.56 10.08 20.32 24.11 20.51 40.39 0.21 13.44-4.97 26.4-14.37 36.01-7.56 7.71-18.4 13.22-29.11 14.7-3.65 0.5-7.87 0.49-11.58 0.53-7.76 0.02-17.92 0.5-25.56-0.48-6.8-0.88-14.18-9.26-14.79-16.41-5.04 17.28-23.52 18.63-38.63 17.8 4.25-1.02 8.12-2.39 9.85-6.79 1.45-3.65 0.71-20.85 0.71-25.62v-81.97l-0.01-22.48c-0.01-10.08-1.12-20.96 6.68-28.73 8.92-8.87 19.62-8.12 31.12-8.15zm-9.28 113.33c0 10.37-1.2 24.67 6.64 32.58 6.04 6.08 18.55 7.57 26.69 7.7 9.27 0.15 16.88-2.01 23.75-8.41 5.64-5.78 9.05-13.1 8.96-21.27-0.04-7.99-3.3-15.63-9.04-21.18-10.57-10.3-23.58-8.92-37.31-8.9l-19.64 0.04q-0.07 9.72-0.05 19.44zm0.18-61.9l0.05 20.48c3.17-0.13 6.35-0.59 9.46-0.63 9.02-0.11 18.07-0.1 27.08-0.12 3.08 0 8.15-0.14 11.1 0.07 3.04-3.33 5.08-6.06 6.73-10.33 3.98-10.3 1.95-24.51-6.59-32.01-7.18-6.29-18.72-8.71-28.08-8.18l-0.3 0.02c-20.75 1.27-19.45 14.59-19.45 30.7zm180.66 14.19c0.78-0.18 1.83-0.32 2.62-0.45 7.52-1.32 8.83-7.07 8.78-13.73-0.02-2.56 0.01-5.34 0.01-7.92l-0.01-20.49v-73.34l-0.02-22.43c-0.02-12.2-1.37-21.43 9.35-29.98 6.75-5.38 13.33-5.6 21.5-5.41 5.59 0.13 11.47-0.23 17.03 0.38-6.17 0.73-11.73 3.81-16.19 8.08-7.45 7.13-6.74 17.34-6.75 26.72v16.52l0.05 60.46c6.14-8.37 11.93-18 18.31-26.35 4.35-5.67 9.38-8.6 16.5-9.64 11.53-1.69 19.04 4.07 27.75 11-2.28-0.77-3.94-1.51-6.4-1.73-7.79-0.68-10.85 6.24-14.54 11.7q-4.97 7.28-10.04 14.48c-1.37 1.96-4.02 5.93-5.5 7.61l-0.16 0.19c4.98 9.31 9.52 19.35 14.4 28.76 1.46 2.82 4.84 10.15 6.56 12.59 0.66 0.33 0.42 0.1 0.79 0.69 2.48 8.39 11.67 10.24 18.77 12.41l-18.58 0.13c-0.08 3.16 0.09 7.43-0.29 10.48-0.58 4.64-2.38 9.05-5.2 12.79-12.21 16.48-30.24 4.65-39.9 12.33-1.92 1.54-3.35 3.54-3.99 5.92-1.01 3.82-0.54 8.44-0.53 12.4l0.02 19.67c0 12.53 0.64 20.56-10.39 29.01-5.82 4.47-11.45 4.5-18.47 4.41-2.56-0.03-4.97 0.05-7.52-0.29 5.5-0.9 10.2-2.46 11.08-9.03 0.75-5.58 0.37-11.94 0.36-17.62l-0.02-32.17c0-6.2-0.09-12.3 0.21-18.5 0.47-9.91 7.68-17.73 16.75-20.93 4.65-1.65 10.04-1.3 14.92-1.29l13.92 0.05c10.06 0.03 13.5-0.58 21.31-7.21-16.54 0.01-20.09-10.94-26.14-23.52-1.42-2.95-2.74-5.25-3.53-8.52-4.45 8.45-12.93 20.17-20.03 26.62-6.67 6.06-18.07 6.1-26.79 5.15zm177.8-200.64c0.69-0.07 1.74-0.09 2.44-0.09 7.34 0.04 14.83-0.18 22.14 0.35-6.54 0.88-11.27 2.89-16.03 7.65-3.29 3.26-5.57 7.4-6.55 11.93-1 4.44-0.63 15.4-0.63 20.43l0.02 33.89 15.35-0.02c9.58-0.01 16.9-0.62 24.98 5.88 5.49 4.41 9.21 11.48 9.47 18.5 0.28 7.54 0.08 15.82 0.09 23.47l0.02 17.67c0.01 4.73 0.21 9.31-0.61 14.01-1.74 9.99-10.57 19.52-21.01 20.07-1.77 0.09-15.24 0.42-16.01-0.24 1.34-0.94 5.05 0.39 8.31-3.27 5.19-5.82 3.81-12.22 3.81-19.64l-0.02-25.07c0.01-4.82 0.11-9.42-0.11-14.39-0.31-6.89-7.51-12.24-14.15-11.46-3.4 0.4-8.83 5.11-9.66 8.58-0.75 3.12-0.48 7.09-0.48 10.43l0.02 17.93c0 8.2 1.01 20.33-4.33 26.92-4.14 5.1-9.8 9.79-16.56 10.17-1.86 0.1-13.79 0.54-14.71-0.21 0.31-0.32 0.39-0.25 0.84-0.29 3.84-0.28 7.25-2.59 8.58-6.31 1.35-3.8 0.64-20.83 0.64-26.14v-82.19l-0.01-22.98c0-7.04-0.7-14.45 2.4-20.95 4.34-9.12 11.79-13.95 21.76-14.63zm-109.1 49.84c0.59 0.58 1.4 6.37 2.15 8.26 1.66 4.73 4.25 7.93 8.09 11.04 6.22 5.05 11.07 5.09 18.6 5.06l13.62-0.05c9.93-0.03 17.26-0.19 25.11 7.41 5.99 5.81 7.03 11.09 7.09 19.07l0.01 34.45c-0.01 6.26 0.32 14.53-0.63 20.6-1.01 4.09-3.79 8.7-6.68 11.61-7.3 7.34-15.93 6.62-25.32 6.61l-17.19-0.02q-1.51 0-3.03-0.09c-6.46-0.37-11.58-3.44-15.79-8.2-4.27-4.82-6.44-11.9-6-18.31 0.35-5.22 2.33-10.6 5.72-14.6 13.11-15.5 30.45-3.59 40.02-12.05 2.41-2.14 3.63-5.35 3.8-8.53 0.17-3.06-1.39-6.45-3.43-8.67-1.42-1.54-3.18-2.73-5.21-3.31-4.3-1.24-12.32-0.24-17.14-0.47-6.21-0.28-12.69-2.78-16.89-7.47-7.55-8.39-6.98-17.99-6.94-28.53 0.01-4.59-0.2-9.22 0.04-13.81zm18.74 101c1.02 4.56 5.49 7.47 10.07 6.54 3.04-0.61 5.51-2.82 6.46-5.77 0.95-2.95 0.24-6.19-1.87-8.46-2.12-2.28-5.29-3.23-8.3-2.5-4.54 1.09-7.37 5.63-6.36 10.19zm-162.74-74c0.59 0.58 1.39 6.37 2.14 8.26 1.67 4.73 4.26 7.93 8.1 11.04 6.24 5.06 11.1 5.09 18.65 5.06l13.61-0.05c9.85-0.03 17.15-0.19 24.98 7.32 6.12 5.88 7.12 11.2 7.18 19.28l0.01 34.42c0 6.22 0.32 14.48-0.63 20.51-1.02 4.09-3.79 8.7-6.68 11.61-7.3 7.34-15.9 6.62-25.29 6.61l-17.14-0.02q-1.85 0.03-3.69-0.13c-6.4-0.5-11.51-3.81-15.58-8.62-4.1-4.84-6.15-12.05-5.59-18.36 0.46-5.14 2.48-10.2 5.82-14.14 13.19-15.52 30.12-3.67 39.48-11.73 2.4-2.06 4.06-5.31 4.24-8.49 0.19-3.17-1.35-6.67-3.47-8.98-1.42-1.54-3.18-2.73-5.21-3.31-4.37-1.25-12.37-0.23-17.26-0.47-6.23-0.32-12.63-2.84-16.84-7.54-7.56-8.44-6.9-18.23-6.87-28.78 0.01-4.48-0.19-9.01 0.04-13.49zm18.74 101c1.01 4.56 5.49 7.47 10.07 6.54 3.04-0.61 5.51-2.82 6.46-5.77 0.95-2.95 0.24-6.19-1.87-8.46-2.11-2.28-5.29-3.23-8.3-2.5-4.54 1.09-7.37 5.62-6.36 10.19zm-9.55 26.03c6.51 4.7 11.01 4.35 18.42 4.33l13.19-0.04c4.02-0.01 7.61-0.14 11.57 0.54 9.59 1.65 18.31 9.39 19.83 19.2 0.67 4.35 0.49 8.94 0.48 13.34l-0.03 18 0.03 16.76c0.01 8.92 0.67 14.65-4.85 22.37-3.48 4.83-8.72 8.11-14.59 9.13-3.47 0.59-32.65 0.61-36.27-0.05-2.9-0.5-5.65-1.65-8.04-3.37-6.01-4.27-9.43-10.06-10.59-17.3-1.04-6.55 0.53-13.25 4.38-18.66 3.63-5.01 9.67-8.92 15.84-9.85 8.45-1.26 20.68 2.45 26.52-5.18 1.71-2.24 2.86-5.58 2.48-8.41-0.47-3.57-2.56-6.89-5.43-9.03-8.29-6.17-26.06 4.56-38.24-10.73-2.96-3.71-4.68-7.48-5.43-12.17-0.88-5.58-0.55-11.53-0.46-17.18 0.83-0.93-0.42-5.9 0.87-8.73 1.18 7.37 4.24 12.64 10.32 17.03zm7.55 80.96c1.01 4.56 5.49 7.48 10.07 6.55 3.04-0.61 5.51-2.82 6.46-5.77 0.95-2.96 0.24-6.19-1.87-8.47-2.11-2.27-5.29-3.22-8.3-2.5-4.54 1.11-7.37 5.63-6.36 10.19zm142.37-100.1l0.11-0.23c-0.49 0.8-0.55 2.17-0.67 3.16 0.66 0.33 0.42 0.1 0.79 0.69 0.06-0.86 0.31-3.07-0.23-3.62z"/>
</svg>